<?xml version="1.0" encoding="utf-8"?>
<!-- Generator: Adobe Illustrator 17.0.0, SVG Export Plug-In . SVG Version: 6.00 Build 0)  -->
<!DOCTYPE svg PUBLIC "-//W3C//DTD SVG 1.1//EN" "http://www.w3.org/Graphics/SVG/1.1/DTD/svg11.dtd">
<svg version="1.1" id="Layer_1" xmlns="http://www.w3.org/2000/svg" xmlns:xlink="http://www.w3.org/1999/xlink" x="0px" y="0px"
	 width="995.633px" height="1002.084px" viewBox="0 0 995.633 1002.084" enable-background="new 0 0 995.633 1002.084"
	 xml:space="preserve">
<rect x="1.042" y="1.042" fill="#010101" stroke="#010101" stroke-width="2.0839" stroke-miterlimit="10" width="993.549" height="1000"/>
<path fill="#FFFFFF" d="M922.446,547.562l-392.452-233.12v-39.68c0-45.02-48.783-64.56-48.783-64.56
	c-31.575-15.5-28.753-48.9-28.753-48.9c0-39.2,34.893-51.78,50.432-51.78c26.111,0,51.724,14.58,54.427,47.92
	c4.252,52.28,63.09,39,63.09-3c0-39.68-35.967-109.3-117.974-109.3c-88.684,0-114.139,87.26-114.139,114.84
	c0,20.82,3.259,40.04,16.016,61.96c21.699,37.28,65.077,43.14,65.077,67.82v24.68l-396.426,234
	c-39.106,23.24-46.18,72.7-37.695,102.72c8.227,29.1,37.238,63.78,89.459,63.78h0.119c0,0,673.15,0,741.029,0
	c58.441,0,85.108-33.72,93.334-62.82C967.692,622.102,967.692,575.642,922.446,547.562z M866.807,649.502h-740.91
	c-24.123,0.94-39.027-33.06-15.181-48.06l386.531-227.16l384.464,226.16C905.556,617.442,892.64,649.442,866.807,649.502z"/>
</svg>
